<svg xmlns="http://www.w3.org/2000/svg" xmlns:xlink="http://www.w3.org/1999/xlink" width="500" zoomAndPan="magnify" viewBox="0 0 375 374.999991" height="500" preserveAspectRatio="xMidYMid meet" version="1.0"><defs><g/><clipPath id="7da9e32116"><path d="M 133.046875 49 L 236 49 L 236 153 L 133.046875 153 Z M 133.046875 49 " clip-rule="nonzero"/></clipPath><clipPath id="e41ef9b92e"><path d="M 133.046875 74 L 204 74 L 204 153 L 133.046875 153 Z M 133.046875 74 " clip-rule="nonzero"/></clipPath><clipPath id="33ac85dd50"><path d="M 133.046875 80 L 166 80 L 166 125 L 133.046875 125 Z M 133.046875 80 " clip-rule="nonzero"/></clipPath><clipPath id="8597520bef"><path d="M 144 37.5 L 271.796875 37.5 L 271.796875 153 L 144 153 Z M 144 37.5 " clip-rule="nonzero"/></clipPath></defs><rect x="-37.5" width="450" fill="#ffffff" y="-37.499999" height="449.999989" fill-opacity="1"/><rect x="-37.5" width="450" fill="#000000" y="-37.499999" height="449.999989" fill-opacity="1"/><g clip-path="url(#7da9e32116)"><path fill="#5271ff" d="M 133.046875 49.8125 L 133.046875 92.847656 L 149.285156 76.527344 L 149.285156 66.066406 L 219.6875 66.066406 L 219.6875 69.691406 L 235.925781 53.625 L 235.925781 49.8125 Z M 219.6875 136.453125 L 193.140625 136.453125 L 176.804688 152.707031 L 235.925781 152.707031 L 235.925781 93.886719 L 219.6875 110.050781 Z M 219.6875 136.453125 " fill-opacity="1" fill-rule="nonzero"/></g><g clip-path="url(#e41ef9b92e)"><path fill="#c7c5cd" d="M 191.691406 74.464844 L 133.046875 132.75 L 133.046875 152.691406 L 136.023438 152.691406 L 203.160156 85.980469 Z M 191.691406 74.464844 " fill-opacity="1" fill-rule="nonzero"/></g><g clip-path="url(#33ac85dd50)"><path fill="#6b6e7a" d="M 154.28125 80.292969 L 133.046875 101.339844 L 133.046875 124.242188 L 165.730469 91.808594 Z M 154.28125 80.292969 " fill-opacity="1" fill-rule="nonzero"/></g><g clip-path="url(#8597520bef)"><path fill="#ffffff" d="M 240.84375 45.984375 L 246.464844 51.6875 L 144.875 152.707031 L 167.921875 152.707031 L 257.902344 63.167969 L 263.667969 68.984375 L 272.160156 37.714844 Z M 240.84375 45.984375 " fill-opacity="1" fill-rule="nonzero"/></g><g fill="#ffffff" fill-opacity="1"><g transform="translate(111.304685, 209.481329)"><g><path d="M 10.21875 0.453125 C 8.476562 0.453125 6.941406 0.140625 5.609375 -0.484375 C 4.273438 -1.117188 3.226562 -2.023438 2.46875 -3.203125 C 1.71875 -4.390625 1.34375 -5.800781 1.34375 -7.4375 L 6.359375 -7.4375 C 6.359375 -6.320312 6.742188 -5.492188 7.515625 -4.953125 C 8.296875 -4.421875 9.1875 -4.15625 10.1875 -4.15625 C 10.820312 -4.15625 11.414062 -4.257812 11.96875 -4.46875 C 12.53125 -4.675781 12.988281 -4.984375 13.34375 -5.390625 C 13.707031 -5.796875 13.890625 -6.28125 13.890625 -6.84375 C 13.890625 -7.4375 13.679688 -7.898438 13.265625 -8.234375 C 12.847656 -8.578125 12.289062 -8.859375 11.59375 -9.078125 C 10.894531 -9.296875 10.132812 -9.503906 9.3125 -9.703125 C 8.457031 -9.898438 7.582031 -10.140625 6.6875 -10.421875 C 5.789062 -10.703125 4.957031 -11.078125 4.1875 -11.546875 C 3.425781 -12.015625 2.816406 -12.644531 2.359375 -13.4375 C 1.898438 -14.238281 1.671875 -15.253906 1.671875 -16.484375 C 1.671875 -18.691406 2.414062 -20.390625 3.90625 -21.578125 C 5.40625 -22.765625 7.4375 -23.359375 10 -23.359375 C 12.613281 -23.359375 14.640625 -22.695312 16.078125 -21.375 C 17.523438 -20.050781 18.25 -18.253906 18.25 -15.984375 L 13.328125 -15.984375 C 13.328125 -16.972656 12.976562 -17.703125 12.28125 -18.171875 C 11.582031 -18.640625 10.773438 -18.875 9.859375 -18.875 C 9.054688 -18.875 8.316406 -18.695312 7.640625 -18.34375 C 6.960938 -18 6.625 -17.453125 6.625 -16.703125 C 6.625 -16.160156 6.820312 -15.726562 7.21875 -15.40625 C 7.625 -15.09375 8.160156 -14.832031 8.828125 -14.625 C 9.492188 -14.414062 10.234375 -14.21875 11.046875 -14.03125 C 11.921875 -13.8125 12.816406 -13.550781 13.734375 -13.25 C 14.648438 -12.957031 15.5 -12.554688 16.28125 -12.046875 C 17.070312 -11.546875 17.710938 -10.878906 18.203125 -10.046875 C 18.691406 -9.222656 18.9375 -8.175781 18.9375 -6.90625 C 18.9375 -5.25 18.535156 -3.875 17.734375 -2.78125 C 16.941406 -1.6875 15.890625 -0.875 14.578125 -0.34375 C 13.265625 0.1875 11.8125 0.453125 10.21875 0.453125 Z M 10.21875 0.453125 "/></g></g></g><g fill="#ffffff" fill-opacity="1"><g transform="translate(131.579334, 209.481329)"><g><path d="M 10.71875 0.484375 C 8.882812 0.484375 7.242188 0.078125 5.796875 -0.734375 C 4.359375 -1.554688 3.222656 -2.671875 2.390625 -4.078125 C 1.554688 -5.484375 1.140625 -7.070312 1.140625 -8.84375 C 1.140625 -10.632812 1.554688 -12.234375 2.390625 -13.640625 C 3.222656 -15.054688 4.359375 -16.164062 5.796875 -16.96875 C 7.242188 -17.78125 8.882812 -18.1875 10.71875 -18.1875 C 12.53125 -18.1875 14.15625 -17.78125 15.59375 -16.96875 C 17.039062 -16.164062 18.175781 -15.054688 19 -13.640625 C 19.832031 -12.234375 20.25 -10.632812 20.25 -8.84375 C 20.25 -7.070312 19.832031 -5.484375 19 -4.078125 C 18.175781 -2.671875 17.039062 -1.554688 15.59375 -0.734375 C 14.15625 0.078125 12.53125 0.484375 10.71875 0.484375 Z M 10.71875 -4 C 12.09375 -4 13.21875 -4.445312 14.09375 -5.34375 C 14.96875 -6.238281 15.40625 -7.40625 15.40625 -8.84375 C 15.40625 -10.289062 14.96875 -11.460938 14.09375 -12.359375 C 13.21875 -13.253906 12.09375 -13.703125 10.71875 -13.703125 C 9.320312 -13.703125 8.1875 -13.253906 7.3125 -12.359375 C 6.4375 -11.460938 6 -10.289062 6 -8.84375 C 6 -7.40625 6.4375 -6.238281 7.3125 -5.34375 C 8.1875 -4.445312 9.320312 -4 10.71875 -4 Z M 10.71875 -4 "/></g></g></g><g fill="#ffffff" fill-opacity="1"><g transform="translate(152.967618, 209.481329)"><g><path d="M 10.390625 0.484375 C 8.722656 0.484375 7.257812 0.15625 6 -0.5 C 4.75 -1.164062 3.78125 -2.09375 3.09375 -3.28125 C 2.40625 -4.476562 2.0625 -5.875 2.0625 -7.46875 L 2.0625 -17.6875 L 6.84375 -17.6875 L 6.84375 -8.03125 C 6.84375 -6.757812 7.15625 -5.769531 7.78125 -5.0625 C 8.40625 -4.351562 9.273438 -4 10.390625 -4 C 11.503906 -4 12.363281 -4.359375 12.96875 -5.078125 C 13.582031 -5.796875 13.890625 -6.78125 13.890625 -8.03125 L 13.890625 -17.6875 L 18.671875 -17.6875 L 18.671875 -7.46875 C 18.671875 -5.875 18.328125 -4.476562 17.640625 -3.28125 C 16.953125 -2.09375 15.984375 -1.164062 14.734375 -0.5 C 13.492188 0.15625 12.046875 0.484375 10.390625 0.484375 Z M 10.390625 0.484375 "/></g></g></g><g fill="#ffffff" fill-opacity="1"><g transform="translate(173.700821, 209.481329)"><g><path d="M 10.9375 -4.265625 L 13.109375 -4.265625 L 13.109375 0 L 9.734375 0 C 7.785156 0 6.25 -0.5625 5.125 -1.6875 C 4 -2.8125 3.4375 -4.359375 3.4375 -6.328125 L 3.4375 -13.859375 L 0.234375 -13.859375 L 0.234375 -14.875 L 7.234375 -22.3125 L 8.125 -22.3125 L 8.125 -17.6875 L 13.015625 -17.6875 L 13.015625 -13.859375 L 8.21875 -13.859375 L 8.21875 -6.953125 C 8.21875 -6.097656 8.453125 -5.4375 8.921875 -4.96875 C 9.398438 -4.5 10.070312 -4.265625 10.9375 -4.265625 Z M 10.9375 -4.265625 "/></g></g></g><g fill="#ffffff" fill-opacity="1"><g transform="translate(187.784995, 209.481329)"><g><path d="M 12.421875 -18.125 C 14.429688 -18.125 16.015625 -17.457031 17.171875 -16.125 C 18.328125 -14.789062 18.90625 -13 18.90625 -10.75 L 18.90625 0 L 14.125 0 L 14.125 -9.953125 C 14.125 -11.265625 13.882812 -12.253906 13.40625 -12.921875 C 12.925781 -13.585938 12.140625 -13.921875 11.046875 -13.921875 C 9.859375 -13.921875 8.898438 -13.507812 8.171875 -12.6875 C 7.441406 -11.875 7.078125 -10.75 7.078125 -9.3125 L 7.078125 0 L 2.296875 0 L 2.296875 -24.078125 L 7.078125 -24.078125 L 7.078125 -16.0625 C 7.753906 -16.6875 8.550781 -17.1875 9.46875 -17.5625 C 10.382812 -17.9375 11.367188 -18.125 12.421875 -18.125 Z M 12.421875 -18.125 "/></g></g></g><g fill="#ffffff" fill-opacity="1"><g transform="translate(208.780233, 209.481329)"><g><path d="M 19.46875 -8.90625 C 19.46875 -8.445312 19.429688 -7.976562 19.359375 -7.5 L 6 -7.5 C 6.195312 -6.300781 6.675781 -5.378906 7.4375 -4.734375 C 8.195312 -4.085938 9.160156 -3.765625 10.328125 -3.765625 C 11.148438 -3.765625 11.890625 -3.941406 12.546875 -4.296875 C 13.203125 -4.660156 13.707031 -5.160156 14.0625 -5.796875 L 19.109375 -5.796875 C 18.453125 -3.878906 17.335938 -2.351562 15.765625 -1.21875 C 14.191406 -0.0820312 12.378906 0.484375 10.328125 0.484375 C 8.578125 0.484375 7.003906 0.078125 5.609375 -0.734375 C 4.222656 -1.554688 3.128906 -2.671875 2.328125 -4.078125 C 1.535156 -5.484375 1.140625 -7.070312 1.140625 -8.84375 C 1.140625 -10.613281 1.535156 -12.203125 2.328125 -13.609375 C 3.128906 -15.023438 4.222656 -16.140625 5.609375 -16.953125 C 7.003906 -17.773438 8.578125 -18.1875 10.328125 -18.1875 C 12.140625 -18.1875 13.734375 -17.765625 15.109375 -16.921875 C 16.484375 -16.078125 17.550781 -14.957031 18.3125 -13.5625 C 19.082031 -12.164062 19.46875 -10.613281 19.46875 -8.90625 Z M 10.328125 -14.125 C 9.253906 -14.125 8.347656 -13.828125 7.609375 -13.234375 C 6.878906 -12.648438 6.382812 -11.832031 6.125 -10.78125 L 14.671875 -10.78125 C 13.972656 -13.007812 12.523438 -14.125 10.328125 -14.125 Z M 10.328125 -14.125 "/></g></g></g><g fill="#ffffff" fill-opacity="1"><g transform="translate(229.349671, 209.481329)"><g><path d="M 11.34375 -17.796875 L 12.90625 -17.796875 L 12.90625 -13.265625 L 10.84375 -13.265625 C 9.488281 -13.265625 8.519531 -12.945312 7.9375 -12.3125 C 7.363281 -11.6875 7.078125 -10.648438 7.078125 -9.203125 L 7.078125 0 L 2.296875 0 L 2.296875 -17.6875 L 5.375 -17.6875 L 6.21875 -15.53125 C 7.425781 -17.039062 9.132812 -17.796875 11.34375 -17.796875 Z M 11.34375 -17.796875 "/></g></g></g><g fill="#ffffff" fill-opacity="1"><g transform="translate(242.680504, 209.481329)"><g><path d="M 12.390625 -18.125 C 14.398438 -18.125 15.988281 -17.453125 17.15625 -16.109375 C 18.320312 -14.765625 18.90625 -12.96875 18.90625 -10.71875 L 18.90625 0 L 14.125 0 L 14.125 -9.953125 C 14.125 -12.597656 13.097656 -13.921875 11.046875 -13.921875 C 9.816406 -13.921875 8.847656 -13.503906 8.140625 -12.671875 C 7.429688 -11.847656 7.078125 -10.726562 7.078125 -9.3125 L 7.078125 0 L 2.296875 0 L 2.296875 -17.6875 L 5.5625 -17.6875 L 6.515625 -15.5 C 7.171875 -16.300781 8.007812 -16.9375 9.03125 -17.40625 C 10.0625 -17.882812 11.179688 -18.125 12.390625 -18.125 Z M 12.390625 -18.125 "/></g></g></g><g fill="#ffffff" fill-opacity="1"><g transform="translate(89.449217, 244.731327)"><g><path d="M 10.21875 0.453125 C 8.476562 0.453125 6.941406 0.140625 5.609375 -0.484375 C 4.273438 -1.117188 3.226562 -2.023438 2.46875 -3.203125 C 1.71875 -4.390625 1.34375 -5.800781 1.34375 -7.4375 L 6.359375 -7.4375 C 6.359375 -6.320312 6.742188 -5.492188 7.515625 -4.953125 C 8.296875 -4.421875 9.1875 -4.15625 10.1875 -4.15625 C 10.820312 -4.15625 11.414062 -4.257812 11.96875 -4.46875 C 12.53125 -4.675781 12.988281 -4.984375 13.34375 -5.390625 C 13.707031 -5.796875 13.890625 -6.28125 13.890625 -6.84375 C 13.890625 -7.4375 13.679688 -7.898438 13.265625 -8.234375 C 12.847656 -8.578125 12.289062 -8.859375 11.59375 -9.078125 C 10.894531 -9.296875 10.132812 -9.503906 9.3125 -9.703125 C 8.457031 -9.898438 7.582031 -10.140625 6.6875 -10.421875 C 5.789062 -10.703125 4.957031 -11.078125 4.1875 -11.546875 C 3.425781 -12.015625 2.816406 -12.644531 2.359375 -13.4375 C 1.898438 -14.238281 1.671875 -15.253906 1.671875 -16.484375 C 1.671875 -18.691406 2.414062 -20.390625 3.90625 -21.578125 C 5.40625 -22.765625 7.4375 -23.359375 10 -23.359375 C 12.613281 -23.359375 14.640625 -22.695312 16.078125 -21.375 C 17.523438 -20.050781 18.25 -18.253906 18.25 -15.984375 L 13.328125 -15.984375 C 13.328125 -16.972656 12.976562 -17.703125 12.28125 -18.171875 C 11.582031 -18.640625 10.773438 -18.875 9.859375 -18.875 C 9.054688 -18.875 8.316406 -18.695312 7.640625 -18.34375 C 6.960938 -18 6.625 -17.453125 6.625 -16.703125 C 6.625 -16.160156 6.820312 -15.726562 7.21875 -15.40625 C 7.625 -15.09375 8.160156 -14.832031 8.828125 -14.625 C 9.492188 -14.414062 10.234375 -14.21875 11.046875 -14.03125 C 11.921875 -13.8125 12.816406 -13.550781 13.734375 -13.25 C 14.648438 -12.957031 15.5 -12.554688 16.28125 -12.046875 C 17.070312 -11.546875 17.710938 -10.878906 18.203125 -10.046875 C 18.691406 -9.222656 18.9375 -8.175781 18.9375 -6.90625 C 18.9375 -5.25 18.535156 -3.875 17.734375 -2.78125 C 16.941406 -1.6875 15.890625 -0.875 14.578125 -0.34375 C 13.265625 0.1875 11.8125 0.453125 10.21875 0.453125 Z M 10.21875 0.453125 "/></g></g></g><g fill="#ffffff" fill-opacity="1"><g transform="translate(109.723866, 244.731327)"><g><path d="M 19.46875 -8.90625 C 19.46875 -8.445312 19.429688 -7.976562 19.359375 -7.5 L 6 -7.5 C 6.195312 -6.300781 6.675781 -5.378906 7.4375 -4.734375 C 8.195312 -4.085938 9.160156 -3.765625 10.328125 -3.765625 C 11.148438 -3.765625 11.890625 -3.941406 12.546875 -4.296875 C 13.203125 -4.660156 13.707031 -5.160156 14.0625 -5.796875 L 19.109375 -5.796875 C 18.453125 -3.878906 17.335938 -2.351562 15.765625 -1.21875 C 14.191406 -0.0820312 12.378906 0.484375 10.328125 0.484375 C 8.578125 0.484375 7.003906 0.078125 5.609375 -0.734375 C 4.222656 -1.554688 3.128906 -2.671875 2.328125 -4.078125 C 1.535156 -5.484375 1.140625 -7.070312 1.140625 -8.84375 C 1.140625 -10.613281 1.535156 -12.203125 2.328125 -13.609375 C 3.128906 -15.023438 4.222656 -16.140625 5.609375 -16.953125 C 7.003906 -17.773438 8.578125 -18.1875 10.328125 -18.1875 C 12.140625 -18.1875 13.734375 -17.765625 15.109375 -16.921875 C 16.484375 -16.078125 17.550781 -14.957031 18.3125 -13.5625 C 19.082031 -12.164062 19.46875 -10.613281 19.46875 -8.90625 Z M 10.328125 -14.125 C 9.253906 -14.125 8.347656 -13.828125 7.609375 -13.234375 C 6.878906 -12.648438 6.382812 -11.832031 6.125 -10.78125 L 14.671875 -10.78125 C 13.972656 -13.007812 12.523438 -14.125 10.328125 -14.125 Z M 10.328125 -14.125 "/></g></g></g><g fill="#ffffff" fill-opacity="1"><g transform="translate(130.293304, 244.731327)"><g><path d="M 10.71875 0.484375 C 8.882812 0.484375 7.242188 0.078125 5.796875 -0.734375 C 4.359375 -1.554688 3.222656 -2.671875 2.390625 -4.078125 C 1.554688 -5.484375 1.140625 -7.070312 1.140625 -8.84375 C 1.140625 -10.632812 1.554688 -12.234375 2.390625 -13.640625 C 3.222656 -15.054688 4.359375 -16.164062 5.796875 -16.96875 C 7.242188 -17.78125 8.882812 -18.1875 10.71875 -18.1875 C 12.53125 -18.1875 14.15625 -17.78125 15.59375 -16.96875 C 17.039062 -16.164062 18.175781 -15.054688 19 -13.640625 C 19.832031 -12.234375 20.25 -10.632812 20.25 -8.84375 C 20.25 -7.070312 19.832031 -5.484375 19 -4.078125 C 18.175781 -2.671875 17.039062 -1.554688 15.59375 -0.734375 C 14.15625 0.078125 12.53125 0.484375 10.71875 0.484375 Z M 10.71875 -4 C 12.09375 -4 13.21875 -4.445312 14.09375 -5.34375 C 14.96875 -6.238281 15.40625 -7.40625 15.40625 -8.84375 C 15.40625 -10.289062 14.96875 -11.460938 14.09375 -12.359375 C 13.21875 -13.253906 12.09375 -13.703125 10.71875 -13.703125 C 9.320312 -13.703125 8.1875 -13.253906 7.3125 -12.359375 C 6.4375 -11.460938 6 -10.289062 6 -8.84375 C 6 -7.40625 6.4375 -6.238281 7.3125 -5.34375 C 8.1875 -4.445312 9.320312 -4 10.71875 -4 Z M 10.71875 -4 "/></g></g></g><g fill="#ffffff" fill-opacity="1"><g transform="translate(151.681589, 244.731327)"><g><path d="M 10.390625 0.484375 C 8.722656 0.484375 7.257812 0.15625 6 -0.5 C 4.75 -1.164062 3.78125 -2.09375 3.09375 -3.28125 C 2.40625 -4.476562 2.0625 -5.875 2.0625 -7.46875 L 2.0625 -17.6875 L 6.84375 -17.6875 L 6.84375 -8.03125 C 6.84375 -6.757812 7.15625 -5.769531 7.78125 -5.0625 C 8.40625 -4.351562 9.273438 -4 10.390625 -4 C 11.503906 -4 12.363281 -4.359375 12.96875 -5.078125 C 13.582031 -5.796875 13.890625 -6.78125 13.890625 -8.03125 L 13.890625 -17.6875 L 18.671875 -17.6875 L 18.671875 -7.46875 C 18.671875 -5.875 18.328125 -4.476562 17.640625 -3.28125 C 16.953125 -2.09375 15.984375 -1.164062 14.734375 -0.5 C 13.492188 0.15625 12.046875 0.484375 10.390625 0.484375 Z M 10.390625 0.484375 "/></g></g></g><g fill="#ffffff" fill-opacity="1"><g transform="translate(172.414792, 244.731327)"><g><path d="M 2.296875 0 L 2.296875 -24.078125 L 7.078125 -24.078125 L 7.078125 0 Z M 2.296875 0 "/></g></g></g><g fill="#ffffff" fill-opacity="1"><g transform="translate(181.782398, 244.731327)"><g><path d="M 10.390625 0.484375 C 8.722656 0.484375 7.257812 0.15625 6 -0.5 C 4.75 -1.164062 3.78125 -2.09375 3.09375 -3.28125 C 2.40625 -4.476562 2.0625 -5.875 2.0625 -7.46875 L 2.0625 -17.6875 L 6.84375 -17.6875 L 6.84375 -8.03125 C 6.84375 -6.757812 7.15625 -5.769531 7.78125 -5.0625 C 8.40625 -4.351562 9.273438 -4 10.390625 -4 C 11.503906 -4 12.363281 -4.359375 12.96875 -5.078125 C 13.582031 -5.796875 13.890625 -6.78125 13.890625 -8.03125 L 13.890625 -17.6875 L 18.671875 -17.6875 L 18.671875 -7.46875 C 18.671875 -5.875 18.328125 -4.476562 17.640625 -3.28125 C 16.953125 -2.09375 15.984375 -1.164062 14.734375 -0.5 C 13.492188 0.15625 12.046875 0.484375 10.390625 0.484375 Z M 10.390625 0.484375 "/></g></g></g><g fill="#ffffff" fill-opacity="1"><g transform="translate(202.515601, 244.731327)"><g><path d="M 10.9375 -4.265625 L 13.109375 -4.265625 L 13.109375 0 L 9.734375 0 C 7.785156 0 6.25 -0.5625 5.125 -1.6875 C 4 -2.8125 3.4375 -4.359375 3.4375 -6.328125 L 3.4375 -13.859375 L 0.234375 -13.859375 L 0.234375 -14.875 L 7.234375 -22.3125 L 8.125 -22.3125 L 8.125 -17.6875 L 13.015625 -17.6875 L 13.015625 -13.859375 L 8.21875 -13.859375 L 8.21875 -6.953125 C 8.21875 -6.097656 8.453125 -5.4375 8.921875 -4.96875 C 9.398438 -4.5 10.070312 -4.265625 10.9375 -4.265625 Z M 10.9375 -4.265625 "/></g></g></g><g fill="#ffffff" fill-opacity="1"><g transform="translate(216.599775, 244.731327)"><g><path d="M 2.296875 -20.046875 L 2.296875 -24.515625 L 7.078125 -24.515625 L 7.078125 -20.046875 Z M 2.296875 0 L 2.296875 -17.6875 L 7.078125 -17.6875 L 7.078125 0 Z M 2.296875 0 "/></g></g></g><g fill="#ffffff" fill-opacity="1"><g transform="translate(225.967381, 244.731327)"><g><path d="M 10.71875 0.484375 C 8.882812 0.484375 7.242188 0.078125 5.796875 -0.734375 C 4.359375 -1.554688 3.222656 -2.671875 2.390625 -4.078125 C 1.554688 -5.484375 1.140625 -7.070312 1.140625 -8.84375 C 1.140625 -10.632812 1.554688 -12.234375 2.390625 -13.640625 C 3.222656 -15.054688 4.359375 -16.164062 5.796875 -16.96875 C 7.242188 -17.78125 8.882812 -18.1875 10.71875 -18.1875 C 12.53125 -18.1875 14.15625 -17.78125 15.59375 -16.96875 C 17.039062 -16.164062 18.175781 -15.054688 19 -13.640625 C 19.832031 -12.234375 20.25 -10.632812 20.25 -8.84375 C 20.25 -7.070312 19.832031 -5.484375 19 -4.078125 C 18.175781 -2.671875 17.039062 -1.554688 15.59375 -0.734375 C 14.15625 0.078125 12.53125 0.484375 10.71875 0.484375 Z M 10.71875 -4 C 12.09375 -4 13.21875 -4.445312 14.09375 -5.34375 C 14.96875 -6.238281 15.40625 -7.40625 15.40625 -8.84375 C 15.40625 -10.289062 14.96875 -11.460938 14.09375 -12.359375 C 13.21875 -13.253906 12.09375 -13.703125 10.71875 -13.703125 C 9.320312 -13.703125 8.1875 -13.253906 7.3125 -12.359375 C 6.4375 -11.460938 6 -10.289062 6 -8.84375 C 6 -7.40625 6.4375 -6.238281 7.3125 -5.34375 C 8.1875 -4.445312 9.320312 -4 10.71875 -4 Z M 10.71875 -4 "/></g></g></g><g fill="#ffffff" fill-opacity="1"><g transform="translate(247.355666, 244.731327)"><g><path d="M 12.390625 -18.125 C 14.398438 -18.125 15.988281 -17.453125 17.15625 -16.109375 C 18.320312 -14.765625 18.90625 -12.96875 18.90625 -10.71875 L 18.90625 0 L 14.125 0 L 14.125 -9.953125 C 14.125 -12.597656 13.097656 -13.921875 11.046875 -13.921875 C 9.816406 -13.921875 8.847656 -13.503906 8.140625 -12.671875 C 7.429688 -11.847656 7.078125 -10.726562 7.078125 -9.3125 L 7.078125 0 L 2.296875 0 L 2.296875 -17.6875 L 5.5625 -17.6875 L 6.515625 -15.5 C 7.171875 -16.300781 8.007812 -16.9375 9.03125 -17.40625 C 10.0625 -17.882812 11.179688 -18.125 12.390625 -18.125 Z M 12.390625 -18.125 "/></g></g></g><g fill="#ffffff" fill-opacity="1"><g transform="translate(268.350904, 244.731327)"><g><path d="M 8.578125 0.484375 C 7.097656 0.484375 5.800781 0.222656 4.6875 -0.296875 C 3.570312 -0.816406 2.703125 -1.550781 2.078125 -2.5 C 1.453125 -3.457031 1.140625 -4.566406 1.140625 -5.828125 L 5.796875 -5.828125 C 5.816406 -5.046875 6.097656 -4.457031 6.640625 -4.0625 C 7.191406 -3.664062 7.894531 -3.46875 8.75 -3.46875 C 9.425781 -3.46875 10.015625 -3.613281 10.515625 -3.90625 C 11.015625 -4.207031 11.265625 -4.65625 11.265625 -5.25 C 11.265625 -5.851562 10.929688 -6.28125 10.265625 -6.53125 C 9.597656 -6.78125 8.796875 -6.984375 7.859375 -7.140625 C 7.160156 -7.253906 6.429688 -7.40625 5.671875 -7.59375 C 4.921875 -7.789062 4.226562 -8.078125 3.59375 -8.453125 C 2.96875 -8.828125 2.453125 -9.335938 2.046875 -9.984375 C 1.640625 -10.640625 1.4375 -11.492188 1.4375 -12.546875 C 1.4375 -13.660156 1.738281 -14.644531 2.34375 -15.5 C 2.945312 -16.351562 3.773438 -17.015625 4.828125 -17.484375 C 5.890625 -17.953125 7.140625 -18.1875 8.578125 -18.1875 C 10.003906 -18.1875 11.242188 -17.9375 12.296875 -17.4375 C 13.359375 -16.945312 14.179688 -16.257812 14.765625 -15.375 C 15.359375 -14.5 15.65625 -13.46875 15.65625 -12.28125 L 11.109375 -12.28125 C 11.109375 -12.976562 10.875 -13.503906 10.40625 -13.859375 C 9.9375 -14.210938 9.285156 -14.390625 8.453125 -14.390625 C 7.710938 -14.390625 7.132812 -14.226562 6.71875 -13.90625 C 6.300781 -13.59375 6.09375 -13.1875 6.09375 -12.6875 C 6.09375 -12.09375 6.421875 -11.6875 7.078125 -11.46875 C 7.734375 -11.25 8.519531 -11.0625 9.4375 -10.90625 C 10.15625 -10.78125 10.894531 -10.625 11.65625 -10.4375 C 12.425781 -10.25 13.140625 -9.96875 13.796875 -9.59375 C 14.453125 -9.226562 14.976562 -8.71875 15.375 -8.0625 C 15.78125 -7.40625 15.984375 -6.539062 15.984375 -5.46875 C 15.984375 -4.269531 15.675781 -3.222656 15.0625 -2.328125 C 14.457031 -1.429688 13.597656 -0.738281 12.484375 -0.25 C 11.367188 0.238281 10.066406 0.484375 8.578125 0.484375 Z M 8.578125 0.484375 "/></g></g></g><g fill="#ffffff" fill-opacity="1"><g transform="translate(96.820311, 279.981325)"><g><path d="M 13.140625 0.484375 C 11.453125 0.484375 9.890625 0.1875 8.453125 -0.40625 C 7.015625 -1.007812 5.757812 -1.847656 4.6875 -2.921875 C 3.613281 -4.003906 2.78125 -5.269531 2.1875 -6.71875 C 1.601562 -8.175781 1.3125 -9.75 1.3125 -11.4375 C 1.3125 -13.132812 1.601562 -14.710938 2.1875 -16.171875 C 2.78125 -17.640625 3.613281 -18.914062 4.6875 -20 C 5.757812 -21.082031 7.015625 -21.921875 8.453125 -22.515625 C 9.890625 -23.117188 11.453125 -23.421875 13.140625 -23.421875 C 14.992188 -23.421875 16.695312 -23.039062 18.25 -22.28125 C 19.800781 -21.519531 21.097656 -20.445312 22.140625 -19.0625 C 23.191406 -17.6875 23.894531 -16.09375 24.25 -14.28125 L 19.265625 -14.28125 C 18.804688 -15.632812 18.03125 -16.707031 16.9375 -17.5 C 15.84375 -18.300781 14.578125 -18.703125 13.140625 -18.703125 C 11.847656 -18.703125 10.6875 -18.378906 9.65625 -17.734375 C 8.632812 -17.097656 7.820312 -16.234375 7.21875 -15.140625 C 6.625 -14.046875 6.328125 -12.8125 6.328125 -11.4375 C 6.328125 -10.0625 6.625 -8.832031 7.21875 -7.75 C 7.820312 -6.664062 8.632812 -5.804688 9.65625 -5.171875 C 10.6875 -4.546875 11.847656 -4.234375 13.140625 -4.234375 C 14.648438 -4.234375 15.945312 -4.65625 17.03125 -5.5 C 18.125 -6.351562 18.878906 -7.515625 19.296875 -8.984375 L 24.3125 -8.984375 C 23.957031 -7.078125 23.257812 -5.414062 22.21875 -4 C 21.1875 -2.582031 19.890625 -1.476562 18.328125 -0.6875 C 16.765625 0.09375 15.035156 0.484375 13.140625 0.484375 Z M 13.140625 0.484375 "/></g></g></g><g fill="#ffffff" fill-opacity="1"><g transform="translate(122.073551, 279.981325)"><g><path d="M 10.71875 0.484375 C 8.882812 0.484375 7.242188 0.078125 5.796875 -0.734375 C 4.359375 -1.554688 3.222656 -2.671875 2.390625 -4.078125 C 1.554688 -5.484375 1.140625 -7.070312 1.140625 -8.84375 C 1.140625 -10.632812 1.554688 -12.234375 2.390625 -13.640625 C 3.222656 -15.054688 4.359375 -16.164062 5.796875 -16.96875 C 7.242188 -17.78125 8.882812 -18.1875 10.71875 -18.1875 C 12.53125 -18.1875 14.15625 -17.78125 15.59375 -16.96875 C 17.039062 -16.164062 18.175781 -15.054688 19 -13.640625 C 19.832031 -12.234375 20.25 -10.632812 20.25 -8.84375 C 20.25 -7.070312 19.832031 -5.484375 19 -4.078125 C 18.175781 -2.671875 17.039062 -1.554688 15.59375 -0.734375 C 14.15625 0.078125 12.53125 0.484375 10.71875 0.484375 Z M 10.71875 -4 C 12.09375 -4 13.21875 -4.445312 14.09375 -5.34375 C 14.96875 -6.238281 15.40625 -7.40625 15.40625 -8.84375 C 15.40625 -10.289062 14.96875 -11.460938 14.09375 -12.359375 C 13.21875 -13.253906 12.09375 -13.703125 10.71875 -13.703125 C 9.320312 -13.703125 8.1875 -13.253906 7.3125 -12.359375 C 6.4375 -11.460938 6 -10.289062 6 -8.84375 C 6 -7.40625 6.4375 -6.238281 7.3125 -5.34375 C 8.1875 -4.445312 9.320312 -4 10.71875 -4 Z M 10.71875 -4 "/></g></g></g><g fill="#ffffff" fill-opacity="1"><g transform="translate(143.461836, 279.981325)"><g><path d="M 12.390625 -18.125 C 14.398438 -18.125 15.988281 -17.453125 17.15625 -16.109375 C 18.320312 -14.765625 18.90625 -12.96875 18.90625 -10.71875 L 18.90625 0 L 14.125 0 L 14.125 -9.953125 C 14.125 -12.597656 13.097656 -13.921875 11.046875 -13.921875 C 9.816406 -13.921875 8.847656 -13.503906 8.140625 -12.671875 C 7.429688 -11.847656 7.078125 -10.726562 7.078125 -9.3125 L 7.078125 0 L 2.296875 0 L 2.296875 -17.6875 L 5.5625 -17.6875 L 6.515625 -15.5 C 7.171875 -16.300781 8.007812 -16.9375 9.03125 -17.40625 C 10.0625 -17.882812 11.179688 -18.125 12.390625 -18.125 Z M 12.390625 -18.125 "/></g></g></g><g fill="#ffffff" fill-opacity="1"><g transform="translate(164.457074, 279.981325)"><g><path d="M 8.578125 0.484375 C 7.097656 0.484375 5.800781 0.222656 4.6875 -0.296875 C 3.570312 -0.816406 2.703125 -1.550781 2.078125 -2.5 C 1.453125 -3.457031 1.140625 -4.566406 1.140625 -5.828125 L 5.796875 -5.828125 C 5.816406 -5.046875 6.097656 -4.457031 6.640625 -4.0625 C 7.191406 -3.664062 7.894531 -3.46875 8.75 -3.46875 C 9.425781 -3.46875 10.015625 -3.613281 10.515625 -3.90625 C 11.015625 -4.207031 11.265625 -4.65625 11.265625 -5.25 C 11.265625 -5.851562 10.929688 -6.28125 10.265625 -6.53125 C 9.597656 -6.78125 8.796875 -6.984375 7.859375 -7.140625 C 7.160156 -7.253906 6.429688 -7.40625 5.671875 -7.59375 C 4.921875 -7.789062 4.226562 -8.078125 3.59375 -8.453125 C 2.96875 -8.828125 2.453125 -9.335938 2.046875 -9.984375 C 1.640625 -10.640625 1.4375 -11.492188 1.4375 -12.546875 C 1.4375 -13.660156 1.738281 -14.644531 2.34375 -15.5 C 2.945312 -16.351562 3.773438 -17.015625 4.828125 -17.484375 C 5.890625 -17.953125 7.140625 -18.1875 8.578125 -18.1875 C 10.003906 -18.1875 11.242188 -17.9375 12.296875 -17.4375 C 13.359375 -16.945312 14.179688 -16.257812 14.765625 -15.375 C 15.359375 -14.5 15.65625 -13.46875 15.65625 -12.28125 L 11.109375 -12.28125 C 11.109375 -12.976562 10.875 -13.503906 10.40625 -13.859375 C 9.9375 -14.210938 9.285156 -14.390625 8.453125 -14.390625 C 7.710938 -14.390625 7.132812 -14.226562 6.71875 -13.90625 C 6.300781 -13.59375 6.09375 -13.1875 6.09375 -12.6875 C 6.09375 -12.09375 6.421875 -11.6875 7.078125 -11.46875 C 7.734375 -11.25 8.519531 -11.0625 9.4375 -10.90625 C 10.15625 -10.78125 10.894531 -10.625 11.65625 -10.4375 C 12.425781 -10.25 13.140625 -9.96875 13.796875 -9.59375 C 14.453125 -9.226562 14.976562 -8.71875 15.375 -8.0625 C 15.78125 -7.40625 15.984375 -6.539062 15.984375 -5.46875 C 15.984375 -4.269531 15.675781 -3.222656 15.0625 -2.328125 C 14.457031 -1.429688 13.597656 -0.738281 12.484375 -0.25 C 11.367188 0.238281 10.066406 0.484375 8.578125 0.484375 Z M 8.578125 0.484375 "/></g></g></g><g fill="#ffffff" fill-opacity="1"><g transform="translate(181.652862, 279.981325)"><g><path d="M 10.390625 0.484375 C 8.722656 0.484375 7.257812 0.15625 6 -0.5 C 4.75 -1.164062 3.78125 -2.09375 3.09375 -3.28125 C 2.40625 -4.476562 2.0625 -5.875 2.0625 -7.46875 L 2.0625 -17.6875 L 6.84375 -17.6875 L 6.84375 -8.03125 C 6.84375 -6.757812 7.15625 -5.769531 7.78125 -5.0625 C 8.40625 -4.351562 9.273438 -4 10.390625 -4 C 11.503906 -4 12.363281 -4.359375 12.96875 -5.078125 C 13.582031 -5.796875 13.890625 -6.78125 13.890625 -8.03125 L 13.890625 -17.6875 L 18.671875 -17.6875 L 18.671875 -7.46875 C 18.671875 -5.875 18.328125 -4.476562 17.640625 -3.28125 C 16.953125 -2.09375 15.984375 -1.164062 14.734375 -0.5 C 13.492188 0.15625 12.046875 0.484375 10.390625 0.484375 Z M 10.390625 0.484375 "/></g></g></g><g fill="#ffffff" fill-opacity="1"><g transform="translate(202.386065, 279.981325)"><g><path d="M 2.296875 0 L 2.296875 -24.078125 L 7.078125 -24.078125 L 7.078125 0 Z M 2.296875 0 "/></g></g></g><g fill="#ffffff" fill-opacity="1"><g transform="translate(211.753671, 279.981325)"><g><path d="M 10.9375 -4.265625 L 13.109375 -4.265625 L 13.109375 0 L 9.734375 0 C 7.785156 0 6.25 -0.5625 5.125 -1.6875 C 4 -2.8125 3.4375 -4.359375 3.4375 -6.328125 L 3.4375 -13.859375 L 0.234375 -13.859375 L 0.234375 -14.875 L 7.234375 -22.3125 L 8.125 -22.3125 L 8.125 -17.6875 L 13.015625 -17.6875 L 13.015625 -13.859375 L 8.21875 -13.859375 L 8.21875 -6.953125 C 8.21875 -6.097656 8.453125 -5.4375 8.921875 -4.96875 C 9.398438 -4.5 10.070312 -4.265625 10.9375 -4.265625 Z M 10.9375 -4.265625 "/></g></g></g><g fill="#ffffff" fill-opacity="1"><g transform="translate(225.837845, 279.981325)"><g><path d="M 2.296875 -20.046875 L 2.296875 -24.515625 L 7.078125 -24.515625 L 7.078125 -20.046875 Z M 2.296875 0 L 2.296875 -17.6875 L 7.078125 -17.6875 L 7.078125 0 Z M 2.296875 0 "/></g></g></g><g fill="#ffffff" fill-opacity="1"><g transform="translate(235.205452, 279.981325)"><g><path d="M 12.390625 -18.125 C 14.398438 -18.125 15.988281 -17.453125 17.15625 -16.109375 C 18.320312 -14.765625 18.90625 -12.96875 18.90625 -10.71875 L 18.90625 0 L 14.125 0 L 14.125 -9.953125 C 14.125 -12.597656 13.097656 -13.921875 11.046875 -13.921875 C 9.816406 -13.921875 8.847656 -13.503906 8.140625 -12.671875 C 7.429688 -11.847656 7.078125 -10.726562 7.078125 -9.3125 L 7.078125 0 L 2.296875 0 L 2.296875 -17.6875 L 5.5625 -17.6875 L 6.515625 -15.5 C 7.171875 -16.300781 8.007812 -16.9375 9.03125 -17.40625 C 10.0625 -17.882812 11.179688 -18.125 12.390625 -18.125 Z M 12.390625 -18.125 "/></g></g></g><g fill="#ffffff" fill-opacity="1"><g transform="translate(256.200689, 279.981325)"><g><path d="M 16.578125 -17.6875 L 19.6875 -17.6875 L 19.6875 -2.0625 C 19.6875 -0.207031 19.320312 1.382812 18.59375 2.71875 C 17.863281 4.050781 16.820312 5.078125 15.46875 5.796875 C 14.113281 6.515625 12.507812 6.875 10.65625 6.875 C 8.25 6.875 6.242188 6.296875 4.640625 5.140625 C 3.035156 3.984375 2.035156 2.398438 1.640625 0.390625 L 6.390625 0.390625 C 6.648438 1.179688 7.1875 1.773438 8 2.171875 C 8.820312 2.578125 9.671875 2.78125 10.546875 2.78125 C 11.773438 2.78125 12.816406 2.414062 13.671875 1.6875 C 14.535156 0.957031 14.96875 -0.0625 14.96875 -1.375 L 14.96875 -2.03125 C 14.269531 -1.53125 13.492188 -1.140625 12.640625 -0.859375 C 11.796875 -0.585938 10.890625 -0.453125 9.921875 -0.453125 C 8.285156 -0.453125 6.800781 -0.84375 5.46875 -1.625 C 4.132812 -2.414062 3.078125 -3.476562 2.296875 -4.8125 C 1.523438 -6.144531 1.140625 -7.644531 1.140625 -9.3125 C 1.140625 -10.96875 1.523438 -12.46875 2.296875 -13.8125 C 3.078125 -15.15625 4.132812 -16.21875 5.46875 -17 C 6.800781 -17.789062 8.285156 -18.1875 9.921875 -18.1875 C 11.085938 -18.1875 12.171875 -17.988281 13.171875 -17.59375 C 14.171875 -17.195312 15.054688 -16.640625 15.828125 -15.921875 Z M 10.484375 -4.71875 C 11.796875 -4.71875 12.875 -5.148438 13.71875 -6.015625 C 14.570312 -6.878906 15 -7.976562 15 -9.3125 C 15 -10.613281 14.578125 -11.695312 13.734375 -12.5625 C 12.898438 -13.425781 11.816406 -13.859375 10.484375 -13.859375 C 9.191406 -13.859375 8.117188 -13.425781 7.265625 -12.5625 C 6.421875 -11.695312 6 -10.613281 6 -9.3125 C 6 -7.976562 6.414062 -6.878906 7.25 -6.015625 C 8.09375 -5.148438 9.171875 -4.71875 10.484375 -4.71875 Z M 10.484375 -4.71875 "/></g></g></g><g fill="#5271ff" fill-opacity="1"><g transform="translate(152.55763, 330.05406)"><g><path d="M 2.90625 -1.765625 L 6.390625 -1.765625 L 6.390625 0 L 1 0 L 1 -8.75 L 6.25 -8.75 L 6.25 -7 L 2.90625 -7 L 2.90625 -5.28125 L 5.921875 -5.28125 L 5.921875 -3.5625 L 2.90625 -3.5625 Z M 2.90625 -1.765625 "/></g></g></g><g fill="#5271ff" fill-opacity="1"><g transform="translate(161.890375, 330.05406)"><g><path d="M 3.90625 0.171875 C 3.238281 0.171875 2.648438 0.0507812 2.140625 -0.1875 C 1.628906 -0.425781 1.226562 -0.769531 0.9375 -1.21875 C 0.65625 -1.675781 0.515625 -2.21875 0.515625 -2.84375 L 2.421875 -2.84375 C 2.421875 -2.414062 2.566406 -2.097656 2.859375 -1.890625 C 3.160156 -1.691406 3.503906 -1.59375 3.890625 -1.59375 C 4.128906 -1.59375 4.351562 -1.628906 4.5625 -1.703125 C 4.78125 -1.785156 4.957031 -1.898438 5.09375 -2.046875 C 5.226562 -2.203125 5.296875 -2.390625 5.296875 -2.609375 C 5.296875 -2.835938 5.21875 -3.015625 5.0625 -3.140625 C 4.90625 -3.273438 4.691406 -3.382812 4.421875 -3.46875 C 4.160156 -3.550781 3.867188 -3.628906 3.546875 -3.703125 C 3.222656 -3.773438 2.890625 -3.863281 2.546875 -3.96875 C 2.203125 -4.082031 1.882812 -4.226562 1.59375 -4.40625 C 1.300781 -4.582031 1.066406 -4.820312 0.890625 -5.125 C 0.722656 -5.4375 0.640625 -5.820312 0.640625 -6.28125 C 0.640625 -7.125 0.921875 -7.769531 1.484375 -8.21875 C 2.054688 -8.675781 2.832031 -8.90625 3.8125 -8.90625 C 4.8125 -8.90625 5.585938 -8.65625 6.140625 -8.15625 C 6.691406 -7.65625 6.96875 -6.96875 6.96875 -6.09375 L 5.09375 -6.09375 C 5.09375 -6.46875 4.957031 -6.742188 4.6875 -6.921875 C 4.414062 -7.109375 4.109375 -7.203125 3.765625 -7.203125 C 3.453125 -7.203125 3.164062 -7.132812 2.90625 -7 C 2.65625 -6.863281 2.53125 -6.65625 2.53125 -6.375 C 2.53125 -6.164062 2.601562 -6 2.75 -5.875 C 2.90625 -5.757812 3.109375 -5.660156 3.359375 -5.578125 C 3.617188 -5.503906 3.90625 -5.425781 4.21875 -5.34375 C 4.550781 -5.257812 4.890625 -5.160156 5.234375 -5.046875 C 5.585938 -4.941406 5.910156 -4.789062 6.203125 -4.59375 C 6.503906 -4.40625 6.75 -4.148438 6.9375 -3.828125 C 7.125 -3.515625 7.21875 -3.117188 7.21875 -2.640625 C 7.21875 -2.003906 7.066406 -1.476562 6.765625 -1.0625 C 6.460938 -0.644531 6.0625 -0.332031 5.5625 -0.125 C 5.0625 0.0703125 4.507812 0.171875 3.90625 0.171875 Z M 3.90625 0.171875 "/></g></g></g><g fill="#5271ff" fill-opacity="1"><g transform="translate(171.972651, 330.05406)"><g><path d="M 7.03125 -8.75 L 7.03125 -6.984375 L 4.59375 -6.984375 L 4.59375 0 L 2.703125 0 L 2.703125 -6.984375 L 0.28125 -6.984375 L 0.28125 -8.75 Z M 7.03125 -8.75 "/></g></g></g><g fill="#5271ff" fill-opacity="1"><g transform="translate(181.617705, 330.05406)"><g/></g></g><g fill="#5271ff" fill-opacity="1"><g transform="translate(186.952971, 330.05406)"><g><path d="M 3.703125 -1.671875 L 6.234375 -1.671875 L 6.234375 0 L 0.40625 0 L 0.40625 -0.390625 C 1.09375 -1.179688 1.664062 -1.847656 2.125 -2.390625 C 2.59375 -2.941406 2.96875 -3.398438 3.25 -3.765625 C 3.53125 -4.140625 3.742188 -4.445312 3.890625 -4.6875 C 4.046875 -4.9375 4.148438 -5.148438 4.203125 -5.328125 C 4.253906 -5.503906 4.28125 -5.675781 4.28125 -5.84375 C 4.28125 -6.132812 4.191406 -6.367188 4.015625 -6.546875 C 3.835938 -6.722656 3.609375 -6.8125 3.328125 -6.8125 C 3.035156 -6.8125 2.796875 -6.722656 2.609375 -6.546875 C 2.429688 -6.367188 2.34375 -6.128906 2.34375 -5.828125 L 2.34375 -5.671875 L 0.5625 -5.671875 L 0.5625 -5.84375 C 0.5625 -6.351562 0.671875 -6.804688 0.890625 -7.203125 C 1.117188 -7.597656 1.4375 -7.910156 1.84375 -8.140625 C 2.257812 -8.367188 2.742188 -8.484375 3.296875 -8.484375 C 3.835938 -8.484375 4.316406 -8.367188 4.734375 -8.140625 C 5.148438 -7.921875 5.476562 -7.613281 5.71875 -7.21875 C 5.957031 -6.832031 6.078125 -6.382812 6.078125 -5.875 C 6.078125 -5.613281 6.039062 -5.351562 5.96875 -5.09375 C 5.90625 -4.84375 5.785156 -4.554688 5.609375 -4.234375 C 5.441406 -3.921875 5.203125 -3.554688 4.890625 -3.140625 C 4.578125 -2.734375 4.179688 -2.242188 3.703125 -1.671875 Z M 3.703125 -1.671875 "/></g></g></g><g fill="#5271ff" fill-opacity="1"><g transform="translate(196.148307, 330.05406)"><g><path d="M 3.96875 0.15625 C 3.269531 0.15625 2.664062 -0.0195312 2.15625 -0.375 C 1.65625 -0.726562 1.269531 -1.226562 1 -1.875 C 0.726562 -2.519531 0.59375 -3.28125 0.59375 -4.15625 C 0.59375 -5.039062 0.726562 -5.804688 1 -6.453125 C 1.269531 -7.097656 1.65625 -7.59375 2.15625 -7.9375 C 2.664062 -8.289062 3.269531 -8.46875 3.96875 -8.46875 C 4.65625 -8.46875 5.25 -8.289062 5.75 -7.9375 C 6.257812 -7.59375 6.648438 -7.097656 6.921875 -6.453125 C 7.191406 -5.804688 7.328125 -5.039062 7.328125 -4.15625 C 7.328125 -3.28125 7.191406 -2.519531 6.921875 -1.875 C 6.648438 -1.226562 6.257812 -0.726562 5.75 -0.375 C 5.25 -0.0195312 4.65625 0.15625 3.96875 0.15625 Z M 3.96875 -1.515625 C 4.46875 -1.515625 4.851562 -1.738281 5.125 -2.1875 C 5.394531 -2.644531 5.53125 -3.300781 5.53125 -4.15625 C 5.53125 -5.007812 5.394531 -5.664062 5.125 -6.125 C 4.851562 -6.582031 4.46875 -6.8125 3.96875 -6.8125 C 3.457031 -6.8125 3.066406 -6.582031 2.796875 -6.125 C 2.523438 -5.675781 2.390625 -5.019531 2.390625 -4.15625 C 2.390625 -3.300781 2.523438 -2.644531 2.796875 -2.1875 C 3.066406 -1.738281 3.457031 -1.515625 3.96875 -1.515625 Z M 3.96875 -1.515625 "/></g></g></g><g fill="#5271ff" fill-opacity="1"><g transform="translate(206.417968, 330.05406)"><g><path d="M 3.703125 -1.671875 L 6.234375 -1.671875 L 6.234375 0 L 0.40625 0 L 0.40625 -0.390625 C 1.09375 -1.179688 1.664062 -1.847656 2.125 -2.390625 C 2.59375 -2.941406 2.96875 -3.398438 3.25 -3.765625 C 3.53125 -4.140625 3.742188 -4.445312 3.890625 -4.6875 C 4.046875 -4.9375 4.148438 -5.148438 4.203125 -5.328125 C 4.253906 -5.503906 4.28125 -5.675781 4.28125 -5.84375 C 4.28125 -6.132812 4.191406 -6.367188 4.015625 -6.546875 C 3.835938 -6.722656 3.609375 -6.8125 3.328125 -6.8125 C 3.035156 -6.8125 2.796875 -6.722656 2.609375 -6.546875 C 2.429688 -6.367188 2.34375 -6.128906 2.34375 -5.828125 L 2.34375 -5.671875 L 0.5625 -5.671875 L 0.5625 -5.84375 C 0.5625 -6.351562 0.671875 -6.804688 0.890625 -7.203125 C 1.117188 -7.597656 1.4375 -7.910156 1.84375 -8.140625 C 2.257812 -8.367188 2.742188 -8.484375 3.296875 -8.484375 C 3.835938 -8.484375 4.316406 -8.367188 4.734375 -8.140625 C 5.148438 -7.921875 5.476562 -7.613281 5.71875 -7.21875 C 5.957031 -6.832031 6.078125 -6.382812 6.078125 -5.875 C 6.078125 -5.613281 6.039062 -5.351562 5.96875 -5.09375 C 5.90625 -4.84375 5.785156 -4.554688 5.609375 -4.234375 C 5.441406 -3.921875 5.203125 -3.554688 4.890625 -3.140625 C 4.578125 -2.734375 4.179688 -2.242188 3.703125 -1.671875 Z M 3.703125 -1.671875 "/></g></g></g><g fill="#5271ff" fill-opacity="1"><g transform="translate(215.613301, 330.05406)"><g><path d="M 3.34375 -5.40625 C 3.925781 -5.40625 4.441406 -5.285156 4.890625 -5.046875 C 5.335938 -4.816406 5.6875 -4.492188 5.9375 -4.078125 C 6.195312 -3.671875 6.328125 -3.203125 6.328125 -2.671875 C 6.328125 -2.140625 6.195312 -1.660156 5.9375 -1.234375 C 5.675781 -0.804688 5.328125 -0.46875 4.890625 -0.21875 C 4.453125 0.03125 3.957031 0.15625 3.40625 0.15625 C 2.851562 0.15625 2.351562 0.0351562 1.90625 -0.203125 C 1.46875 -0.441406 1.125 -0.769531 0.875 -1.1875 C 0.625 -1.601562 0.492188 -2.078125 0.484375 -2.609375 L 2.296875 -2.609375 C 2.296875 -2.296875 2.398438 -2.035156 2.609375 -1.828125 C 2.816406 -1.617188 3.082031 -1.515625 3.40625 -1.515625 C 3.726562 -1.515625 3.992188 -1.625 4.203125 -1.84375 C 4.421875 -2.0625 4.53125 -2.335938 4.53125 -2.671875 C 4.53125 -3.035156 4.414062 -3.328125 4.1875 -3.546875 C 3.957031 -3.773438 3.65625 -3.890625 3.28125 -3.890625 L 0.953125 -3.890625 L 0.78125 -4.109375 L 1.25 -8.3125 L 5.75 -8.3125 L 5.75 -6.71875 L 2.65625 -6.71875 L 2.515625 -5.40625 Z M 3.34375 -5.40625 "/></g></g></g></svg>