<svg xmlns="http://www.w3.org/2000/svg" xmlns:xlink="http://www.w3.org/1999/xlink" width="272" zoomAndPan="magnify" viewBox="0 0 204 248.250006" height="331" preserveAspectRatio="xMidYMid meet" version="1.0"><defs><clipPath id="5956e74579"><path d="M 0.308594 0 L 203.691406 0 L 203.691406 247.503906 L 0.308594 247.503906 Z M 0.308594 0 " clip-rule="nonzero"/></clipPath><clipPath id="5655eed0ca"><path d="M 0.308594 0 L 149.855469 0 L 149.855469 149.546875 L 0.308594 149.546875 Z M 0.308594 0 " clip-rule="nonzero"/></clipPath><clipPath id="76e2bbe277"><path d="M 9.320312 97.511719 L 158.863281 97.511719 L 158.863281 247.054688 L 9.320312 247.054688 Z M 9.320312 97.511719 " clip-rule="nonzero"/></clipPath><clipPath id="b2f9e881e3"><path d="M 106.492188 24 L 203.691406 24 L 203.691406 161 L 106.492188 161 Z M 106.492188 24 " clip-rule="nonzero"/></clipPath></defs><g clip-path="url(#5956e74579)"><path fill="#ffffff" d="M 0.308594 0 L 203.691406 0 L 203.691406 247.503906 L 0.308594 247.503906 Z M 0.308594 0 " fill-opacity="1" fill-rule="nonzero"/></g><g clip-path="url(#5655eed0ca)"><path fill="#1e88e5" d="M 149.855469 74.773438 C 149.855469 75.996094 149.824219 77.222656 149.765625 78.441406 C 149.707031 79.664062 149.617188 80.886719 149.496094 82.101562 C 149.375 83.320312 149.226562 84.535156 149.046875 85.746094 C 148.867188 86.957031 148.65625 88.160156 148.417969 89.363281 C 148.179688 90.5625 147.910156 91.753906 147.613281 92.941406 C 147.316406 94.128906 146.992188 95.308594 146.636719 96.480469 C 146.28125 97.652344 145.898438 98.8125 145.484375 99.964844 C 145.070312 101.117188 144.632812 102.257812 144.164062 103.390625 C 143.695312 104.519531 143.199219 105.636719 142.675781 106.742188 C 142.152344 107.851562 141.601562 108.941406 141.027344 110.023438 C 140.449219 111.101562 139.847656 112.167969 139.21875 113.214844 C 138.589844 114.265625 137.933594 115.300781 137.253906 116.316406 C 136.574219 117.332031 135.871094 118.335938 135.140625 119.316406 C 134.410156 120.300781 133.660156 121.265625 132.882812 122.210938 C 132.105469 123.15625 131.308594 124.082031 130.484375 124.988281 C 129.664062 125.894531 128.820312 126.78125 127.953125 127.648438 C 127.089844 128.511719 126.203125 129.355469 125.296875 130.179688 C 124.390625 131 123.464844 131.800781 122.515625 132.574219 C 121.570312 133.351562 120.605469 134.105469 119.625 134.832031 C 118.640625 135.5625 117.640625 136.265625 116.625 136.945312 C 115.605469 137.625 114.574219 138.28125 113.523438 138.910156 C 112.472656 139.539062 111.410156 140.140625 110.328125 140.71875 C 109.25 141.296875 108.15625 141.847656 107.050781 142.367188 C 105.945312 142.890625 104.828125 143.386719 103.695312 143.855469 C 102.566406 144.324219 101.425781 144.765625 100.273438 145.175781 C 99.121094 145.589844 97.957031 145.972656 96.785156 146.328125 C 95.617188 146.683594 94.4375 147.011719 93.25 147.308594 C 92.0625 147.605469 90.871094 147.871094 89.667969 148.113281 C 88.46875 148.351562 87.261719 148.558594 86.054688 148.738281 C 84.84375 148.917969 83.628906 149.066406 82.410156 149.1875 C 81.191406 149.308594 79.972656 149.398438 78.75 149.457031 C 77.527344 149.519531 76.304688 149.546875 75.082031 149.546875 C 73.859375 149.546875 72.632812 149.519531 71.414062 149.457031 C 70.191406 149.398438 68.96875 149.308594 67.753906 149.1875 C 66.535156 149.066406 65.320312 148.917969 64.109375 148.738281 C 62.898438 148.558594 61.695312 148.351562 60.492188 148.113281 C 59.292969 147.871094 58.101562 147.605469 56.914062 147.308594 C 55.726562 147.011719 54.546875 146.683594 53.375 146.328125 C 52.203125 145.972656 51.042969 145.589844 49.890625 145.175781 C 48.738281 144.765625 47.597656 144.324219 46.464844 143.855469 C 45.335938 143.386719 44.21875 142.890625 43.109375 142.367188 C 42.003906 141.847656 40.914062 141.296875 39.832031 140.71875 C 38.753906 140.140625 37.6875 139.539062 36.640625 138.910156 C 35.589844 138.28125 34.554688 137.625 33.539062 136.945312 C 32.523438 136.265625 31.519531 135.5625 30.539062 134.832031 C 29.554688 134.105469 28.589844 133.351562 27.644531 132.574219 C 26.699219 131.800781 25.773438 131 24.867188 130.179688 C 23.960938 129.355469 23.074219 128.511719 22.207031 127.648438 C 21.34375 126.78125 20.5 125.894531 19.675781 124.988281 C 18.855469 124.082031 18.054688 123.15625 17.28125 122.210938 C 16.503906 121.265625 15.75 120.300781 15.023438 119.316406 C 14.292969 118.335938 13.589844 117.332031 12.910156 116.316406 C 12.230469 115.300781 11.574219 114.265625 10.945312 113.214844 C 10.316406 112.167969 9.714844 111.101562 9.136719 110.023438 C 8.558594 108.941406 8.007812 107.851562 7.488281 106.742188 C 6.964844 105.636719 6.46875 104.519531 6 103.390625 C 5.53125 102.257812 5.089844 101.117188 4.679688 99.964844 C 4.265625 98.8125 3.882812 97.652344 3.527344 96.480469 C 3.171875 95.308594 2.84375 94.128906 2.546875 92.941406 C 2.25 91.753906 1.984375 90.5625 1.742188 89.363281 C 1.503906 88.160156 1.296875 86.957031 1.117188 85.746094 C 0.9375 84.535156 0.789062 83.320312 0.667969 82.101562 C 0.546875 80.886719 0.457031 79.664062 0.398438 78.441406 C 0.335938 77.222656 0.308594 75.996094 0.308594 74.773438 C 0.308594 73.550781 0.335938 72.328125 0.398438 71.105469 C 0.457031 69.882812 0.546875 68.664062 0.667969 67.445312 C 0.789062 66.226562 0.9375 65.011719 1.117188 63.800781 C 1.296875 62.59375 1.503906 61.386719 1.742188 60.1875 C 1.984375 58.984375 2.25 57.792969 2.546875 56.605469 C 2.84375 55.417969 3.171875 54.238281 3.527344 53.066406 C 3.882812 51.898438 4.265625 50.734375 4.679688 49.582031 C 5.089844 48.429688 5.53125 47.289062 6 46.160156 C 6.46875 45.027344 6.964844 43.910156 7.488281 42.804688 C 8.007812 41.699219 8.558594 40.605469 9.136719 39.527344 C 9.714844 38.445312 10.316406 37.382812 10.945312 36.332031 C 11.574219 35.28125 12.230469 34.25 12.910156 33.230469 C 13.589844 32.214844 14.292969 31.214844 15.023438 30.230469 C 15.75 29.25 16.503906 28.285156 17.28125 27.339844 C 18.054688 26.390625 18.855469 25.464844 19.675781 24.558594 C 20.5 23.652344 21.34375 22.765625 22.207031 21.902344 C 23.074219 21.035156 23.960938 20.191406 24.867188 19.371094 C 25.773438 18.546875 26.699219 17.75 27.644531 16.972656 C 28.589844 16.195312 29.554688 15.445312 30.539062 14.714844 C 31.519531 13.984375 32.523438 13.28125 33.539062 12.601562 C 34.554688 11.921875 35.589844 11.265625 36.640625 10.636719 C 37.6875 10.007812 38.753906 9.40625 39.832031 8.828125 C 40.914062 8.253906 42.003906 7.703125 43.109375 7.179688 C 44.21875 6.65625 45.335938 6.160156 46.464844 5.691406 C 47.597656 5.222656 48.738281 4.785156 49.890625 4.371094 C 51.042969 3.957031 52.203125 3.574219 53.375 3.21875 C 54.546875 2.863281 55.726562 2.539062 56.914062 2.242188 C 58.101562 1.945312 59.292969 1.675781 60.492188 1.4375 C 61.695312 1.199219 62.898438 0.988281 64.109375 0.808594 C 65.320312 0.628906 66.535156 0.480469 67.753906 0.359375 C 68.96875 0.238281 70.191406 0.148438 71.414062 0.0898438 C 72.632812 0.03125 73.859375 0 75.082031 0 C 76.304688 0 77.527344 0.03125 78.75 0.0898438 C 79.972656 0.148438 81.191406 0.238281 82.410156 0.359375 C 83.628906 0.480469 84.84375 0.628906 86.054688 0.808594 C 87.261719 0.988281 88.46875 1.199219 89.667969 1.4375 C 90.871094 1.675781 92.0625 1.945312 93.25 2.242188 C 94.4375 2.539062 95.617188 2.863281 96.785156 3.21875 C 97.957031 3.574219 99.121094 3.957031 100.273438 4.371094 C 101.425781 4.785156 102.566406 5.222656 103.695312 5.691406 C 104.828125 6.160156 105.945312 6.65625 107.050781 7.179688 C 108.15625 7.703125 109.25 8.253906 110.328125 8.828125 C 111.410156 9.40625 112.472656 10.007812 113.523438 10.636719 C 114.574219 11.265625 115.605469 11.921875 116.625 12.601562 C 117.640625 13.28125 118.640625 13.984375 119.625 14.714844 C 120.605469 15.445312 121.570312 16.195312 122.515625 16.972656 C 123.464844 17.75 124.390625 18.546875 125.296875 19.371094 C 126.203125 20.191406 127.089844 21.035156 127.953125 21.902344 C 128.820312 22.765625 129.664062 23.652344 130.484375 24.558594 C 131.308594 25.464844 132.105469 26.390625 132.882812 27.339844 C 133.660156 28.285156 134.410156 29.25 135.140625 30.230469 C 135.871094 31.214844 136.574219 32.214844 137.253906 33.230469 C 137.933594 34.25 138.589844 35.28125 139.21875 36.332031 C 139.847656 37.382812 140.449219 38.445312 141.027344 39.527344 C 141.601562 40.605469 142.152344 41.699219 142.675781 42.804688 C 143.199219 43.910156 143.695312 45.027344 144.164062 46.160156 C 144.632812 47.289062 145.070312 48.429688 145.484375 49.582031 C 145.898438 50.734375 146.28125 51.898438 146.636719 53.066406 C 146.992188 54.238281 147.316406 55.417969 147.613281 56.605469 C 147.910156 57.792969 148.179688 58.984375 148.417969 60.1875 C 148.65625 61.386719 148.867188 62.59375 149.046875 63.800781 C 149.226562 65.011719 149.375 66.226562 149.496094 67.445312 C 149.617188 68.664062 149.707031 69.882812 149.765625 71.105469 C 149.824219 72.328125 149.855469 73.550781 149.855469 74.773438 Z M 149.855469 74.773438 " fill-opacity="1" fill-rule="nonzero"/></g><path fill="#eaeaea" d="M 125.148438 42.53125 L 91.710938 69.03125 L 125.925781 96.1875 L 125.925781 45.703125 C 125.945312 44.578125 125.6875 43.519531 125.148438 42.53125 Z M 125.148438 42.53125 " fill-opacity="1" fill-rule="nonzero"/><path fill="#eaeaea" d="M 25.011719 42.53125 C 24.476562 43.519531 24.214844 44.578125 24.234375 45.703125 L 24.234375 96.1875 L 58.453125 69.03125 Z M 25.011719 42.53125 " fill-opacity="1" fill-rule="nonzero"/><path fill="#eaeaea" d="M 79.867188 78.421875 C 79.226562 79.019531 78.496094 79.472656 77.679688 79.78125 C 76.863281 80.09375 76.015625 80.238281 75.140625 80.21875 C 74.214844 80.226562 73.316406 80.066406 72.449219 79.734375 C 71.582031 79.40625 70.804688 78.929688 70.117188 78.304688 L 62.339844 72.320312 L 24.234375 102.351562 L 24.234375 103.847656 C 24.234375 104.320312 24.28125 104.792969 24.375 105.257812 C 24.464844 105.722656 24.605469 106.175781 24.785156 106.617188 C 24.96875 107.054688 25.191406 107.472656 25.453125 107.867188 C 25.71875 108.261719 26.019531 108.628906 26.355469 108.964844 C 26.691406 109.300781 27.054688 109.601562 27.453125 109.863281 C 27.847656 110.128906 28.265625 110.351562 28.703125 110.535156 C 29.140625 110.714844 29.59375 110.851562 30.0625 110.945312 C 30.527344 111.039062 30.996094 111.085938 31.472656 111.085938 L 118.691406 111.085938 C 119.164062 111.085938 119.636719 111.039062 120.101562 110.945312 C 120.566406 110.851562 121.019531 110.714844 121.460938 110.535156 C 121.898438 110.351562 122.316406 110.128906 122.710938 109.863281 C 123.105469 109.601562 123.472656 109.300781 123.808594 108.964844 C 124.144531 108.628906 124.445312 108.261719 124.707031 107.867188 C 124.972656 107.472656 125.195312 107.054688 125.375 106.617188 C 125.558594 106.175781 125.695312 105.722656 125.789062 105.257812 C 125.882812 104.792969 125.925781 104.320312 125.925781 103.847656 L 125.925781 102.351562 L 87.824219 72.082031 Z M 79.867188 78.421875 " fill-opacity="1" fill-rule="nonzero"/><path fill="#eaeaea" d="M 66.109375 69.03125 L 73.167969 74.65625 C 73.398438 74.882812 73.664062 75.0625 73.964844 75.1875 C 74.261719 75.3125 74.578125 75.375 74.902344 75.375 C 75.226562 75.375 75.539062 75.3125 75.839844 75.1875 C 76.140625 75.0625 76.40625 74.882812 76.636719 74.65625 L 83.816406 68.671875 L 87.703125 65.621094 L 121.5625 38.761719 C 120.609375 38.335938 119.613281 38.117188 118.570312 38.105469 L 31.472656 38.105469 C 30.449219 38.109375 29.472656 38.328125 28.542969 38.761719 L 62.339844 65.800781 Z M 66.109375 69.03125 " fill-opacity="1" fill-rule="nonzero"/><g clip-path="url(#76e2bbe277)"><path fill="#44ad44" d="M 158.863281 172.285156 C 158.863281 213.578125 125.386719 247.054688 84.089844 247.054688 C 42.796875 247.054688 9.320312 213.578125 9.320312 172.285156 C 9.320312 130.988281 42.796875 97.511719 84.089844 97.511719 C 125.386719 97.511719 158.863281 130.988281 158.863281 172.285156 " fill-opacity="1" fill-rule="nonzero"/></g><path fill="#ffffff" d="M 115.453125 189.578125 C 107.894531 186.40625 100.75 185.3125 96.410156 191.875 C 83.542969 183.738281 72.636719 172.832031 64.5 159.96875 C 71.0625 155.625 69.96875 148.480469 66.796875 140.925781 C 63.566406 133.394531 59.136719 127.398438 51.453125 129.074219 C 43.777344 130.613281 37.722656 141.242188 42.035156 151.421875 C 54.039062 179.746094 76.632812 202.335938 104.953125 214.339844 C 115.132812 218.652344 125.765625 212.597656 127.300781 204.925781 C 128.976562 197.238281 122.980469 192.808594 115.453125 189.578125 " fill-opacity="1" fill-rule="nonzero"/><path fill="#ffffff" d="M 115.453125 189.578125 C 107.894531 186.40625 100.75 185.3125 96.410156 191.875 C 83.542969 183.738281 72.636719 172.832031 64.5 159.96875 C 71.0625 155.625 69.96875 148.480469 66.796875 140.925781 C 63.566406 133.394531 59.136719 127.398438 51.453125 129.074219 C 43.777344 130.613281 37.722656 141.242188 42.035156 151.421875 C 54.039062 179.746094 76.632812 202.335938 104.953125 214.339844 C 115.132812 218.652344 125.765625 212.597656 127.300781 204.925781 C 128.976562 197.238281 122.980469 192.808594 115.453125 189.578125 " fill-opacity="1" fill-rule="nonzero"/><path fill="#d9dad9" d="M 192.84375 158.464844 L 192.519531 160.273438 C 190.992188 163.917969 186.523438 166.828125 179.113281 169.011719 C 171.652344 171.195312 162.867188 172.082031 152.757812 171.667969 C 143.105469 171.089844 135.390625 169.40625 129.605469 166.609375 C 127.75 165.703125 126.222656 164.71875 125.023438 163.652344 L 123.511719 162.007812 C 122.679688 160.875 122.257812 159.695312 122.25 158.464844 C 122.503906 154.691406 125.949219 151.550781 132.585938 149.046875 C 139.226562 146.539062 147.546875 145.238281 157.546875 145.144531 C 167.546875 145.238281 175.863281 146.539062 182.503906 149.046875 C 189.144531 151.550781 192.589844 154.691406 192.84375 158.464844 " fill-opacity="1" fill-rule="nonzero"/><g clip-path="url(#b2f9e881e3)"><path fill="#d00e00" d="M 203.386719 70.382812 L 202.636719 63.863281 C 199.917969 50.785156 193.316406 40.515625 182.789062 33.113281 C 172.21875 25.683594 159.976562 22.738281 146.269531 25.214844 C 133.101562 27.597656 122.445312 34.226562 115.457031 45.023438 C 109.832031 53.714844 108.742188 58.515625 107.910156 62.058594 C 106.769531 66.933594 106.5 70.511719 106.792969 74.953125 C 107.695312 88.601562 115.457031 97.667969 122.558594 108.371094 C 131.140625 121.296875 149.65625 147.4375 157.605469 160.300781 C 167.878906 141.847656 184.21875 116.132812 190.859375 105.136719 C 197.503906 94.144531 203.691406 84.054688 203.386719 70.382812 Z M 203.386719 70.382812 " fill-opacity="1" fill-rule="nonzero"/></g><path fill="#fefefe" d="M 175.078125 72.277344 L 174.734375 74.957031 C 173.550781 80.324219 170.777344 84.507812 166.410156 87.507812 C 162.019531 90.503906 156.996094 91.523438 151.34375 90.570312 C 145.964844 89.386719 141.773438 86.621094 138.765625 82.261719 C 137.804688 80.855469 137.03125 79.339844 136.453125 77.710938 L 135.746094 75.214844 C 135.382812 73.503906 135.25 71.734375 135.355469 69.902344 C 135.832031 64.296875 138.050781 59.738281 142.011719 56.234375 C 145.972656 52.726562 150.769531 51.074219 156.40625 51.265625 C 162.023438 51.746094 166.585938 53.960938 170.101562 57.910156 C 173.613281 61.863281 175.273438 66.652344 175.078125 72.277344 " fill-opacity="1" fill-rule="nonzero"/></svg>